<?xml version="1.0" encoding="utf-8"?>
<!-- Generator: Adobe Illustrator 16.0.0, SVG Export Plug-In . SVG Version: 6.00 Build 0)  -->
<!DOCTYPE svg PUBLIC "-//W3C//DTD SVG 1.0//EN" "http://www.w3.org/TR/2001/REC-SVG-20010904/DTD/svg10.dtd">
<svg version="1.0" id="Layer_1" xmlns="http://www.w3.org/2000/svg" xmlns:xlink="http://www.w3.org/1999/xlink" x="0px" y="0px"
	 width="800px" height="800px" viewBox="0 0 800 800" enable-background="new 0 0 800 800" xml:space="preserve">
<g>
	<path id="red" fill="#C5262F" d="M142.586,386.239c0.598-0.6,1.198-1.199,1.597-1.799c0-0.798,0-1.597,0-2.196
		c0-2.397,0-4.395,0.401-5.993c0.399-1.798,0.399-4.395,0.399-7.991c-0.399-2.997-1.598-5.794-3.996-8.39
		c-5.794-4.994-10.588-6.792-14.382-5.593c-2.198,0.6-4.795,0.6-8.391-0.201c-4.395-0.999-8.789-0.6-12.985,1.398
		c-1.998,0.799-3.396,1.199-4.395,1.199c-0.999-0.2-1.797-0.2-2.598,0c-0.399,0.2-0.598,0.2-0.798,0.399
		c-3.596,1.398-5.993,2.797-7.391,3.796c-0.2,0.199-0.2,0.598-0.399,0.999c-1.799,3.595-2.597,5.993-2.398,7.391
		c0.4,3.396,0.8,5.793,0.999,6.992c-0.199,3.196,0.401,5.792,1.599,7.791c0,0.2,0,0.2,0,0.399l0.399,0.201
		c1.799,1.598,3.596,2.796,4.795,3.794c0.199,0.201,0.399,0.4,0.399,0.4c1.398-0.4,2.598-0.599,3.596-0.4
		c1.398,0.4,2.997,0.4,4.794,0c1.398-0.399,2.797-0.399,3.995-0.198c1.599,0.198,2.997,0,3.996-0.8
		c1.199-0.399,2.997-0.598,5.593-0.399h0.201c0.999-0.6,1.797-1.198,2.196-1.599c0.399-0.399,0.6-0.798,1.199-1.198
		c0-0.799,0.399-1.397,0.798-1.798c0.399-0.799,0.8-1.797,1.199-3.196c0-0.999-0.2-2.198-0.399-3.996c-0.2-1.199-0.2-2.198,0-2.997
		c0.799-1.799,1.198-3.396,1.398-4.794c0-2.397,0.999-4.395,2.796-5.593c1.997-1.598,3.796-2.398,4.994-1.998
		c1.199,0.199,1.998,1.198,2.797,2.397c0.799,1.797,1.198,3.795,1.198,5.993c-0.199,1.598-0.6,3.196-1.198,4.595
		c-0.6,1.398-1.399,2.796-2.597,3.996c-1.199,1.398-1.799,3.396-1.799,5.993c-0.199,0.598-0.199,1.198-0.4,1.797
		c0.4,0.399,0.6,0.6,1,1.199c0.2,0,0.2,0.198,0.399,0.399c1.4-0.201,2.997,0,4.994,0.399c1.998,0.201,3.596,0.201,5.195,0.201
		c0.2,0,0.399,0,0.399,0.199c0.2-0.4,0.399-0.4,0.399-0.4S142.186,386.438,142.586,386.239L142.586,386.239z M109.824,408.412
		c0-0.399,0-0.599,0.201-0.999c0.199-1.197,0-2.196-0.399-3.194c0-0.6,0-1.398,0-1.998s0-1.199,0-1.799
		c-0.401-0.399-0.6-0.598-1.199-0.798c-1.199-0.799-2.597-1.199-3.995-1.599h-0.201c-1.797,0.999-3.195,1.398-4.194,1.599
		c-1.199,0.2-2.397,0.399-3.396,0.399c-0.6,0.201-0.799,0.399-0.999,0.399c-1.199,0.8-1.998,1.4-2.398,2.198
		c-0.598,0.6-0.999,1.199-1.198,1.798c-0.201,2.198-0.399,3.797-0.799,4.994c-0.599,1.399-0.799,2.798-0.799,4.595
		c1.199-1.398,2.796-2.196,4.794-2.796c1.598-0.6,2.996-0.8,3.995-0.8c1.199,0.4,2.398,0.4,3.596,0c1.199-0.399,2.198-0.399,3.197,0
		c0.199,0,0.199,0,0.399,0C108.026,409.812,109.025,409.212,109.824,408.412L109.824,408.412z M158.766,453.56
		c0.6,2.597,0.6,4.794,0.2,6.393c-0.6,1.197-0.8,1.999-0.999,2.798c-0.399,1.199-0.8,1.997-1.199,2.396
		c-1.599,1.399-3.396,1.997-5.394,1.997c-1.797,0-3.396-0.999-4.595-2.597c-1.398-2.197-1.998-3.994-1.797-5.395
		c0.199-1.196,0-2.396-0.399-3.193c-0.401-0.802-0.401-1.8,0-2.599c0.399-1.199,0.399-2.396,0-3.595
		c-0.8-3.197-1.199-5.594-0.8-6.991c0.6-4.796,0.399-9.391-0.399-13.785c-0.201-1.197-0.201-2.396,0-3.396
		c0.2-1.199,0.2-2.797,0-5.194c-0.201-2.797-0.201-4.794,0.399-6.393c0.6-1.997,0.6-4.194,0.399-6.593
		c-0.399-1.197-0.599-2.796-0.599-4.794c-0.999-0.998-1.798-1.796-2.597-2.198c-1.199-1.198-2.198-2.196-2.797-2.596
		c-0.199-0.2-0.399-0.2-0.799-0.2c-3.196-0.999-6.592-1.199-9.788-0.399c-1.399,0.399-2.597,0.399-3.596,0.399
		c-1.199,0.2-1.998,0.399-2.397,0.799c-0.6,0.2-1.199,0.6-1.599,0.999c0.199,0.201,0.199,0.4,0.199,0.4c0,1.198,0,2.397,0.201,3.796
		c0,0.798,0,1.598-0.399,2.396c-0.2,0.2-0.2,0.399-0.2,0.6c0.8,0.999,1.799,1.997,2.797,2.597c0,0.199,0.199,0.199,0.399,0.399
		c1.398-0.2,2.997,0,4.794,0.399c1.997,0.2,3.796,0.2,5.394,0c1.598,0.2,3.397,0.6,4.794,1.799c1.797,1.197,2.598,2.796,2.598,4.994
		c0.199,1.798-0.999,3.396-3.197,4.395c-2.597,0.998-5.393,0.799-8.59-0.2c-2.196-0.6-4.793-0.799-7.19-0.399
		c-1.799,0.6-3.596,0.6-5.395,0.2h-0.199c-4.195,1.397-7.191,2.796-8.79,3.795l0.2,0.2c0.399,1.597,0,3.595-0.999,6.393
		c-0.2,1.197-0.2,2.196-0.2,2.796s0,1.799,0,3.196c0,1.198,0.2,2.397,0.599,3.196c0.201,0.6,0.4,1.199,0.8,1.598
		c1.398,0.801,1.597,1.998,0.999,3.597c-0.6,1.597-1.598,2.596-2.997,3.196c-0.8,0.2-1.598,0.2-2.198,0s-1.398-0.4-2.397-0.798
		c-2.198-0.602-3.796-2.6-4.795-5.794c-0.799-4.396-1.198-7.792-0.799-10.388c0.201-1.199,0.4-2.398,0.4-3.397
		c0-0.399,0-0.799,0-1.197c-0.199-0.801-0.4-1.398-0.799-1.799c-0.399-0.599-0.6-0.999-0.999-1.398c-1,0-1.799,0-2.598-0.198
		c-0.999-0.6-1.797-1-2.397-1.4c0,0.201,0,0.4,0.199,0.801c0,1.397-0.199,2.996-0.598,4.993c-0.8,1.599-0.999,3.196-0.999,4.395
		c0,0.999-0.2,1.798-0.4,2.797c-0.399,0.8-0.399,1.599-0.399,2.597c0,0.999-0.199,1.998-0.6,2.997
		c-0.598,1.199-0.798,2.396-0.798,3.596c0,0.798-0.201,1.797-0.6,3.196c-1.599,3.795-2.598,6.992-2.997,9.19
		c-0.399,1.598-1.398,2.995-2.598,4.393c-1.797,1.601-3.594,2.6-5.193,2.797c-1.397,0-2.797-0.197-4.394-0.999
		c-1.399-0.998-2.198-2.196-2.597-3.595c-0.4-1.399-0.4-2.797-0.4-3.996c0.4-1.398,0.799-2.595,1.198-3.594
		c0.8-0.802,1.598-1.998,2.597-3.798c1.797-1.996,2.597-3.795,2.597-5.193c0.199-1.198,0.6-1.997,0.999-2.397
		c1-2.396,1.599-4.594,1.998-6.392c0.6-1.397,0.999-2.597,0.999-3.596c0-4.196,0.799-8.191,2.397-12.187
		c0.999-2.396,0.999-4.794,0.399-6.991c0.201-1.798,0.4-2.997,0.4-3.795c0.6-1.599,0.799-3.197,0.6-4.794
		c-0.4-2.597-0.4-4.995-0.199-7.192c0.199-1.998,0-5.792-0.4-11.586c-0.199-3.396-1.198-5.993-2.397-7.791
		c-1.797-2.798-2.997-6.193-2.997-10.388c-0.399-4.195,0.201-8.19,1.998-11.787c1.798-4.194,3.396-6.593,4.994-7.391
		c2.397-1.199,4.595-1.199,6.392,0.2c-0.199-0.2-0.199-0.2,0-0.2c0.401-0.201,1.199-0.201,2.198,0c0.6,0,1.598,0,2.796-0.201
		c2.398-0.798,4.795-0.999,6.992-0.598c1.598,0.399,2.997,0.399,3.995,0.199c2.198-0.999,3.796-1.398,4.795-1.198
		c0.6,0.199,1.398,0,2.396-0.401c2.598-0.999,4.794-1.198,6.593-0.598c1.998,0.598,3.995,0.598,5.993,0.199
		c3.195-0.6,5.993-0.6,8.39-0.199c1.398,0.199,2.597,0.199,3.596,0.199c1.198,0,1.997,0.399,2.796,0.999
		c1.199,0.8,2.397,0.999,3.596,0.999c1.599,0,2.996,0,4.195,0.399c1.398,0.8,2.197,1.4,2.596,2.198
		c0.6,1.199,1.598,2.198,3.196,2.797c2.598,1.399,4.395,3.796,5.394,6.991c0.399,1.799,0.399,3.596,0,5.594
		c-0.199,1.398-0.799,2.396-1.598,2.996c-0.799,0.8-1.198,1.799-1.198,2.797c0,1.198-0.4,1.998-0.6,2.397
		c-0.6,1.198-0.6,2.397-0.4,3.196c0.4,0.999,0.4,1.998,0,3.397c-0.6,3.595-0.799,7.19-0.399,11.186c0,2.598-0.4,4.795-1.199,6.393
		c-0.399,0.999-0.2,2.198,0.201,3.995c0.399,1.4,0.199,2.997-0.201,4.995c-0.399,1.599-0.399,3.196,0,4.795
		c0.799,3.995,0.799,7.391,0.4,10.188c-0.6,4.795-0.4,8.391,0.599,10.788c1.998,5.992,2.997,10.987,3.197,14.781
		C157.767,448.766,158.167,451.361,158.766,453.56L158.766,453.56z M121.21,438.577c0.8-0.2,2.198-0.398,3.996-0.398
		c1.798-0.201,2.996-0.4,3.796-0.801c2.196-0.798,4.194-0.398,6.392,0.801c1.797,0.998,2.796,2.597,3.196,4.793
		c0.199,2.396-0.6,3.996-2.198,4.996c-1.998,1.196-4.794,1.597-8.389,1.196c-1-0.198-1.599-0.198-1.799-0.198
		c-0.599,0.198-1.398,0.198-1.998,0.198c-0.798,0-1.597,0.2-2.197,0.4c-1.799,0.598-4.196,0.598-6.992-0.2
		c-1.397-0.999-2.198-2.198-2.397-3.996c0-1.197,0.598-2.396,1.198-3.794c1.199-1.398,2.598-2.198,4.196-2.397
		C119.413,439.177,120.412,438.778,121.21,438.577L121.21,438.577z M100.036,366.461c0.6-0.399,0.999-0.798,1.198-1.397
		c0.201-0.799,1.199-1.198,3.397-1.198c1.597,0,2.997,0.598,3.995,1.797c0.999,1.598,1.797,3.196,1.998,4.793
		c0.199,0.8,0.399,1.4,0.798,1.998c0.201,0.6,0.201,1.199,0,1.799c0.4,1.398,0.4,2.597,0.6,3.195c0.199,0.8,0,1.998-0.399,3.397
		c-0.799,1.797-1.598,2.796-2.597,3.196c-0.999,0.399-2.198-0.199-3.796-1.797c-2.197-1.398-3.396-2.997-3.795-4.595
		c-0.999-2.397-1.598-3.995-1.797-4.994c0-0.6-0.201-1.797-0.4-3.396C99.236,367.461,99.436,366.461,100.036,366.461
		L100.036,366.461z M49.096,389.236C48.896,389.236,48.896,389.435,49.096,389.236c-0.999,0.798-2.198,1.198-3.995,1.397
		c-1.398,0.201-2.397,1-2.797,2.397c-0.799,1.998-2.197,3.596-4.194,4.795c-1.398,0.799-1.998,1.798-2.198,3.196
		c-0.199,1.799-0.799,3.197-1.797,4.195c-1.398,1.198-1.998,2.397-1.998,3.396c0.399,1.798,1.398,3.597,2.997,5.394
		c1.198,0.6,2.397,0.999,3.596,0.999c1.597,0.2,2.595,0.399,3.396,0.8c0.999,0.599,1.997,0.799,2.597,0.399
		c1.398-0.6,2.596-0.6,3.196-0.399c1.199,0.199,2.797,0,4.595-0.8c1.797-0.799,3.396-2.196,4.794-3.795c0-0.2,0-0.2,0-0.399
		c0-1.799,0.2-3.397,0.6-4.396c0.599-1.398,0.799-2.997,0.599-4.994c-0.2-1.797-0.599-3.196-1.397-3.996
		c-0.201-0.399-0.399-0.999-0.8-1.797c-0.399-1.199-0.999-2.198-1.797-2.796c-0.399-0.401-0.599-0.8-0.798-1.199
		c-0.201-0.4-0.401-0.6-0.6-1C51.893,390.234,50.494,389.835,49.096,389.236L49.096,389.236z M21.529,414.206
		c0.2-1.199,0-2.597-0.4-3.995c-0.399-1.599,0-3.396,1.198-5.393c1.599-3.597,3.197-5.794,4.795-6.394
		c0.999-0.599,1.598-1.597,1.797-3.196c0-1.398,0.8-3.197,2.198-5.195c0.799-1.796,0.799-3.595,0.199-5.193
		c-0.199-0.799-0.399-1.598-1.198-2.397c-0.6-1-1.398-1.398-1.998-1.598c-1.799-0.6-2.797-1.399-3.396-2.597
		c-0.4-0.6-0.999-0.999-1.598-1.199c-0.8-0.399-1.199-0.999-0.999-1.998c0.198-0.599-0.201-1.398-1-1.998
		c-0.799-0.799-1.198-1.598-1.198-2.598c-0.199-2.996,0.2-4.793,0.799-5.193c0.799-0.6,0.999-1.397,0.999-1.997
		c0-0.999,0.799-3.197,2.397-6.393c1.998-3.796,3.396-5.993,3.995-6.592c0.4-0.201,0.799-1,1.198-1.998
		c0.401-0.8,1-1.598,1.799-2.198c0.6-0.399,0.999-0.999,1.198-1.797c0.2-0.999,0.8-1.599,1.598-1.998
		c0.6-0.2,1.199-0.999,1.998-2.198c1.598-2.997,2.997-4.595,3.995-4.395c0.999,0,1.799-0.201,2.397-0.6
		c0.999-0.6,2.397-0.799,3.995-0.399c1.199,0.399,2.198,0.6,2.797,0.399c1.598-0.399,3.596,0,5.793,1.199
		c2.597,1.797,3.796,3.596,3.995,5.594c0.2,1.998-0.199,2.997-0.999,3.396c-1.797,1.398-2.997,1.998-4.194,1.797
		c-1.199-0.199-1.998,0-2.398,0.399c-0.799,0.6-1.797,0.8-2.796,0.8c-0.999-0.201-1.797,0-2.598,0.6
		c-0.6,0.598-1.198,0.799-1.598,0.799c-0.598-0.201-1.198,0.2-1.797,0.999c-0.798,0.999-1.397,1.797-1.397,2.597
		c-0.201,1.198-0.6,1.797-1.199,2.197c-0.799,0.6-1.398,1.598-1.797,2.797c-0.6,1.398-0.999,2.196-1.398,2.196
		c-0.799,0.6-1.399,1.998-1.798,4.595c-1.398,2.797-1.797,4.994-1.198,6.193c1.198,1.797,2.197,2.997,2.797,3.396
		c0.798,0.201,1.199,0.6,1.199,0.999c0.198,0.798,1.198,1.398,2.396,1.398c1.198,0.201,1.797,0.399,2.197,0.6
		c1.399,0.799,2.597,0.6,3.595-0.399c0.8-0.8,1.599-1.398,2.397-1.398c1.199-0.2,1.998-0.8,2.398-2.198
		c0.399-0.799,0.599-1.199,0.999-1.598c0.999-0.6,1.797-1.797,2.197-3.396c0.399-1.199,0.8-1.998,1.199-2.397
		c0.799-0.8,1-1.599,0.6-2.397c0-0.8-1.199-1.799-3.196-2.798c-0.799-0.6-0.799-1.598-0.201-3.396c0.6-0.999,1.4-1.598,2.797-1.598
		c0.799-0.199,1.398-0.4,1.998-0.799c0.799-0.6,1.598-0.6,2.597-0.201c0.598,0.4,1.398,0.4,2.596,0.4
		c2.997,0.2,5.395,1.598,7.192,3.995c1.199,1.598,1.599,2.597,0.999,3.397c-0.6,0.798-0.399,1.998,0.2,3.396
		c0.399,1.198,0.399,2.597,0,3.794c-0.8,1.799-1.799,2.997-2.797,2.997c-2.597,0.8-4.595,1.998-5.993,3.396
		c-1,0.8-1.398,1.799-1.599,2.598c-0.198,0.599-0.598,1.199-0.598,1.798c0,0.399,0,0.598,0.199,0.598
		c0.201,1,0.399,2.398,0.399,3.995c0.201,0.201,0.201,0.201,0.401,0.401c0.198,0.598,0.598,0.999,0.999,1.198
		c0.999,0.399,1.797,1.199,2.196,2.597c0.399,0.999,0.999,1.998,1.799,2.598c0.799,0.399,1.398,1.397,1.797,2.597
		c0.799,2.197,1.398,4.195,1.398,5.793c0.201,2.198,0.6,3.795,0.999,4.794c0.6,1.399,0.8,2.798,0.6,3.796
		c-0.2,2.197-0.798,4.194-1.998,5.793c-0.799,0.8-1.798,1.398-2.597,1.799c-0.6,0.599-1.398,1.198-2.397,1.997
		c-1.998,1.198-3.596,2.797-4.995,4.396c-1.997,2.396-4.793,3.794-8.59,3.995c-1.398,0-2.796,0.199-4.194,0.6
		c-1.799,0.398-3.397,0.198-4.995-0.801c-2.198-1.197-3.995-1.598-5.992-1.598c-2.997,0.2-5.994-0.799-8.791-3.196
		C22.527,418.801,21.328,415.805,21.529,414.206L21.529,414.206z M58.285,431.985c0.6-0.399,0.999-0.999,1.199-1.599
		c0.2-0.799,1.397-1.198,3.794-1.198c1.599,0,2.997,0.6,4.196,1.998c1.199,1.599,1.797,3.195,2.198,4.794
		c0.199,0.8,0.399,1.599,0.598,2.198c0.2,0.6,0.2,1.397,0,1.997c0.4,1.398,0.6,2.598,0.6,3.396c0.2,0.999,0,1.998-0.399,3.396
		c-0.999,1.798-1.998,2.997-2.997,3.194c-0.999,0.401-2.397-0.197-4.196-1.797c-2.196-1.597-3.396-3.396-3.794-4.994
		c-1.199-2.596-1.797-4.194-1.797-5.192c0-0.801-0.201-1.998-0.6-3.597C57.486,432.983,57.886,431.985,58.285,431.985
		L58.285,431.985z M41.505,436.58c0.6-0.2,1.199-0.6,1.598-0.999c0.4-0.799,1.598-0.799,3.795,0c1.398,0.6,2.597,1.398,3.197,2.796
		c0.599,1.799,0.798,3.596,0.599,5.194c-0.2,2.796,0.199,5.194,0.799,7.59c0.2,2.198-0.2,4.396-1.199,6.595
		c-0.199,1.396-0.199,2.595-0.399,3.394c-0.199,1-0.599,1.998-1.398,2.997c-1.398,1.399-2.598,2.198-3.596,2.198
		c-0.999,0.2-1.997-0.799-3.195-2.797c-1.4-2.198-2.199-3.995-1.998-5.593c-0.799-5.595-1.199-9.39-0.799-11.388
		c0.399-1.398,0.599-3.995,0.999-7.591C40.506,437.378,41.106,436.58,41.505,436.58L41.505,436.58z M22.527,437.778
		c0.799-2.996,1.998-4.795,3.794-5.395c1.799-0.598,3.397,0,4.595,1.799c0.999,1.599,0.999,3.596,0,6.192
		c-0.199,1.799-0.199,3.796-0.199,5.794c0.598,1.996,0.399,3.796-0.4,5.393c-0.799,1.798-1.797,3.397-2.997,4.794
		c-0.799,1.6-1.398,3.398-1.998,5.396c-0.598,1.997-1.397,3.395-2.595,3.994c-1.199,0.8-2.797,0.999-4.795,0.6
		c-1.797-0.6-2.796-1.799-3.196-3.595c-0.599-1.998-0.4-4.195,0.199-6.395c0.8-1.597,1.398-3.595,1.799-5.992
		c0-3.396,1.198-6.393,3.396-8.99C21.129,440.176,22.128,438.977,22.527,437.778L22.527,437.778z M234.676,446.769
		c0.999-1.199,2.397-2.198,4.196-2.997c1.598-0.8,2.997-1.799,4.194-2.996c2.198-1.599,3.995-2.798,5.394-3.397
		c2.397-1.397,5.394-3.396,8.989-5.592c2.797-1.998,4.794-3.597,6.192-4.196c0.799-1.199,1.799-2.197,2.997-2.996
		c2.996-1.798,5.793-3.795,8.39-6.193c2.198-1.397,3.995-1.997,5.593-1.597c2.397,0.599,3.596,1.997,3.396,4.194
		c-0.399,1.997-1.798,3.796-3.996,5.194c-1.198,0.798-2.196,1.797-3.195,3.195c-2.397,1.998-4.595,3.796-6.593,5.395
		c-1.598,0.799-2.997,1.998-4.195,3.795c-2.397,2.397-4.593,3.995-6.591,4.794c-0.6,0.999-0.8,2.198-0.999,3.397
		c-0.4,1.797-0.6,2.796-0.8,2.796c-0.798-0.2-1.797-0.2-2.597,0c-0.799,0.2-1.797,0.2-3.196,0.4c-0.399,0-0.6,0-0.8,0.197
		c-0.199,0-0.199,0-0.399,0.201c-1.398,0.998-2.796,1.997-3.795,3.396c-0.999,0.999-2.797,2.198-5.593,3.197
		c-1.398,0.598-2.997,1.796-4.794,3.394c-1.4,0.999-3.596,2.198-6.992,3.599c-4.196,2.194-7.392,3.193-8.989,3.193
		c-1,0-2.598,0.602-4.795,2.197c-2.397,1.601-4.994,2.6-7.19,2.6c-2.997,0.398-5.194,0-6.793-0.999
		c-1.997-1.199-3.396-3.196-3.995-5.595c-0.399-1.798,0.6-3.595,2.598-5.793c1.797-1.797,4.195-2.797,6.992-2.996
		c4.793-0.599,8.19-1.598,9.988-2.797c1.199-0.798,3.197-1.399,5.594-1.797C229.283,449.965,233.078,448.165,234.676,446.769
		L234.676,446.769z M277.026,470.94c-2.596,0.999-4.594,1.397-5.993,0.999c-1.797-0.601-3.196-0.999-4.194-0.999
		c-2.198-0.401-3.597-0.998-4.195-1.997c-0.4-1.199-1.198-2.199-1.998-3.198c-0.999-0.798-1.398-1.796-1.598-2.795
		c-0.199-0.801-0.598-1.601-1.198-2.398c-1.199-1.598-1.799-3.197-1.799-4.794c-0.199-1.798,0.4-2.997,1.199-3.598
		c1.397-0.999,3.396-0.999,5.593,0.4c0.999,0.599,2.197,1.399,3.596,2.596c0.798,0.4,1.398,0.602,2.197,0.602
		c1.998,0.598,4.994,0.398,8.791-0.602c4.994-0.998,8.189-2.194,9.587-3.394c0.4-0.799,1.199-1.399,2.198-1.399
		c2.198-0.999,4.595-2.997,7.192-6.393c0.999-1.398,1.797-2.396,2.595-3.195c1.799-1.799,3.397-4.994,4.795-9.189
		c0.799-4.395,0.799-7.592-0.2-9.39c-1.198-3.396-3.195-6.392-6.192-8.989c-0.6-0.398-0.999-0.6-1.399-0.6
		c-1.398,0-2.596,0.201-3.196,0.201c-1.598,0.398-2.797,0.598-3.796,0.598c-0.999,0.2-1.797,0.4-2.596,0.4
		c-0.6,0-1.199-1.199-1.599-3.196c-0.6-2.198-1.398-3.995-1.998-5.394c-0.399-0.6-0.6-1.199-0.799-1.398
		c-0.598-0.199-1.198-0.4-1.797-0.4c-2.796-0.598-4.595-0.598-5.593-0.199c-1.998,0.6-3.596,0.6-4.595,0.4c-0.199,0-0.199,0-0.399,0
		c-0.6,1.598-1.797,2.996-3.795,4.194c-1.199,0.799-1.998,1.598-2.797,2.597c-2.196,1.799-4.194,3.396-6.191,4.795
		c-1.398,0.799-2.798,1.998-3.797,3.396c-2.397,1.997-4.395,3.396-5.993,4.394c-1,0.6-2.197,1.398-3.196,2.397
		c-1.598,1.598-3.196,2.797-4.794,3.796c-1.398,0.6-2.596,1.599-3.595,2.797s-2.797,2.197-4.994,2.797
		c-1.199,0.599-2.597,1.598-4.195,3.195c-1.398,0.801-3.596,1.799-6.392,3.196c-3.797,1.798-6.593,2.598-8.191,2.598
		c-0.798-0.2-2.196,0.599-4.194,1.798c-2.198,1.398-4.396,2.197-6.592,2.398c-2.798,0.197-4.795-0.201-6.193-1.199
		c-1.797-1.199-2.997-2.798-3.396-5.194c-0.399-1.398,0.4-3.197,2.397-4.994c1.799-1.599,3.995-2.598,6.392-2.598
		c4.595-0.399,7.591-1.197,9.189-2.196c0.999-0.6,2.796-1.199,4.995-1.599c5.393-1.799,8.789-3.396,10.388-4.795
		c0.999-0.999,2.198-1.798,3.995-2.597c1.397-0.799,2.797-1.598,3.796-2.597c1.998-1.398,3.595-2.396,4.994-2.996
		c2.397-1.398,5.193-2.997,8.39-4.994c2.597-1.799,4.394-2.997,5.393-3.797c0.799-0.999,1.797-1.797,2.796-2.596
		c2.398-1.199,4.396-2.598,6.394-4.195l-0.2-0.2c-1.398-0.799-2.198-2.397-2.198-4.794c0.2-2.198,1.399-3.794,3.595-4.794
		c2.198-0.799,4.395-0.999,6.393-0.999c1.998,0.199,4.196,0.399,6.394,0.799c2.397,0.798,4.194,0.999,5.592,0.6
		c0.8-0.4,1.998-0.4,3.197-0.4c1.199,0.598,2.796,0.799,4.395,0.799c0.999-0.201,2.198,0.201,3.596,0.999
		c2.397,1.797,4.794,2.997,7.191,3.996c2.197,0.999,3.795,2.198,4.395,3.396c1.398,1.598,3.596,3.596,6.192,5.394
		c1.199,0.799,1.799,1.997,1.799,3.596c0.6,1.199,1.397,2.798,2.397,4.795c0.999,1.198,1.598,2.796,1.397,4.396
		c0.201,1.197,0.8,2.396,1.398,3.396c0.6,0.798,0.6,1.797,0.2,2.597c-0.6,1.197-0.798,2.598-0.399,4.194
		c0.799,1.199,0.399,3.596-0.999,6.992c-0.201,0.799-0.4,1.997-0.4,3.196c0,1.797-0.999,4.195-2.996,7.392
		c-2.598,3.194-4.396,4.795-5.395,4.795c-0.799,0.598-1.398,1.396-1.998,2.796c-1.598,1.998-3.995,4.194-7.191,6.193
		c-6.392,4.394-10.987,6.792-13.185,7.191C282.02,469.141,279.824,469.942,277.026,470.94L277.026,470.94z M225.887,343.09
		c-2.996-0.799-4.595-2.397-4.595-4.794c0-2.397,0.6-3.995,2.397-5.393c1.998-1.599,4.395-2.598,7.391-2.598
		c1.799-0.2,3.596-0.399,5.594-0.799c2.797-1,5.793-1.598,9.388-1.598c4.396,0,7.792,0,10.189,0.4
		c3.196,0.798,6.592,0.999,10.188,0.6c5.393-0.8,10.187-0.201,14.383,1.797c0.999,0.798,2.597,0.999,4.595,0.999
		c2.197,0.2,4.395,1.199,6.792,2.997c2.598,1.598,3.995,2.996,3.995,4.195c0.201,1.198,0.6,2.397,1.797,3.396
		c1.4,1.398,1.998,4.194,1.799,7.991c0.399,1.796,0.799,3.595,1.397,4.793c0.799,1.398,1.199,3.596,1.199,6.393
		c0,3.397,0,6.593,0,9.39c-0.2,4.394-1.199,7.59-3.196,9.587c-1.598,2.398-4.196,4.396-7.591,5.593
		c-2.597,1.398-5.792,1.998-9.989,1.599c-2.796-0.201-5.193-0.201-7.19,0.399c-2.198,0.799-4.396,0.999-6.394,0.399
		c-1.797-0.798-3.795-0.999-5.793-0.399c-2.397,1.199-4.394,1.199-6.392,0.399c-1.397-0.598-2.997-0.798-4.795-0.399
		c-0.598,1.799-1.198,3.596-2.197,5.394c-0.999,1.399-2.396,2.797-4.195,4.195c-1,0.799-1.797,1.598-2.598,2.598
		c-0.798,1.598-1.797,2.597-2.996,2.996c-1.398,0.6-2.797,1.398-3.795,2.397c-1.797,1.797-3.795,3.197-6.193,3.995
		c-1.797,0.799-3.595,1.798-5.193,2.797c-1.398,1.198-3.596,1.798-6.593,1.798c-2.597,0.199-4.793,0.799-6.592,1.998
		c-1.998,0.999-3.596,1.397-4.595,1.198c-1.198-0.199-2.196,0-2.997,0.199c-2.397,1-4.994,1-7.79,0.4
		c-1.998-0.6-3.197-1.398-3.197-1.998c-0.199-0.799-0.399-1.398-0.799-1.398c-0.399-0.399-0.599-0.999-0.798-1.998
		c-0.201-1.598,0.199-3.196,1.198-4.394c0.999-1,2.397-1.799,4.195-2.397c1.998-0.6,3.995-0.6,5.993-0.2
		c1.398,0.399,2.997,0.399,4.994,0.399c1.998-0.199,3.795-0.799,5.394-1.797c1.599-1.199,3.396-1.998,5.394-1.998
		c1.998-0.399,3.796-1.199,5.393-2.597c1.4-1.199,2.997-1.798,4.795-2.198c2.397-1.198,4.395-2.596,5.993-4.593
		c0.6-1.199,1.198-2.199,1.998-2.997c-2.597-0.8-5.195-0.6-7.391,0.399c-1.598,0.6-3.995,0.399-7.591-0.6s-5.794-2.198-6.592-3.995
		c-0.399-1.598-1.398-3.196-3.396-4.595c-1.599-0.999-2.198-2.997-1.798-6.393c-0.199-4.994-0.4-8.989-0.799-12.186
		c-0.6-1.797-0.6-3.795-0.201-5.592c0.201-1.199,0.201-2.597,0.201-3.995c-0.201-2.797,0.399-5.395,1.398-7.591
		c0.799-1.598,1.598-2.797,2.597-3.396c0.999-0.8,1.998-1.199,2.997-1.199c1.199,0.2,2.397,0.6,3.197,0.999
		c0.999,0.799,1.598,1.998,1.998,3.596c0.798,1.797,0.798,4.995,0.399,9.188c-0.799,4.995-0.799,8.791-0.399,11.388
		c0.598,3.396,1.397,5.593,2.595,6.992c1.199,2.197,3.197,3.595,5.794,4.395c3.795,1.198,8.19,0.999,12.785-0.399
		c5.993-1.799,11.986-1.998,17.78-0.6c3.595,0.798,6.992,0.798,9.788-0.399c2.796-0.8,5.993-1.199,9.588-0.999
		c2.997,0.399,5.394-0.4,6.992-2.398c1.398-0.999,2.597-2.997,3.396-5.792c0.399-3.197,0.201-5.792-0.798-8.191
		c-0.8-2.197-1.199-3.996-1.199-5.592c-0.2-1.199-0.399-2.398-0.798-3.596c-1.199-1.598-1.998-2.597-1.998-3.196
		c-0.401-1.198-1-2.197-1.799-2.598c-1.198-0.399-1.998-0.999-2.796-1.597c-1-1.399-5.794-2.198-14.383-2.597
		c-5.794,0.199-10.789,0-14.583-0.4c-5.194-0.999-10.188-0.4-14.583,1.798C233.078,343.09,229.483,343.689,225.887,343.09
		L225.887,343.09z M246.662,353.278c3.996-0.799,7.792-0.999,11.788-0.2c2.997,0.799,5.792,0.999,7.99,0.399
		c2.796-0.799,5.193-0.598,6.992,0.4c1.797,1.398,2.796,3.196,2.996,5.593c-0.4,2.198-1.399,3.596-2.597,4.396
		c-1.799,0.798-3.596,0.798-5.394,0.199c-3.197-0.798-6.193-0.999-8.59-0.199c-2.996,1.198-5.794,1.198-8.59,0.199
		c-2.597-0.6-6.193-0.399-10.587,0.599c-3.196,1-5.993,1-8.39,0c-1.599-1.397-2.397-2.996-2.397-4.994
		c0.199-1.998,0.999-3.596,2.397-4.793c1.398-1.4,3.197-1.599,5.593-1C240.07,354.476,243.066,354.277,246.662,353.278
		L246.662,353.278z"/>
	<path id="black" d="M438.834,408.412h46.347v11.986h-28.966v8.989h26.768v11.388h-26.768v10.987h29.765v12.783h-47.345v-56.134
		H438.834z M491.374,408.412h52.737v13.784h-17.778v42.35h-17.181v-42.35h-17.778V408.412L491.374,408.412z M658.177,464.546h18.177
		l-20.976-56.134H636.4l-20.976,56.134h17.78l2.797-9.188h19.576L658.177,464.546L658.177,464.546z M639.597,443.172l6.194-20.177
		l6.192,20.177H639.597L639.597,443.172z M678.952,445.968l16.379-0.998c0.4,2.597,1.199,4.595,2.198,5.994
		c1.797,2.195,4.396,3.395,7.592,3.395c2.396,0,4.393-0.599,5.793-1.798c1.396-1.199,1.997-2.596,1.997-3.995
		s-0.601-2.797-1.797-3.795c-1.199-1.199-4.196-2.198-8.791-3.196c-7.591-1.798-12.985-3.995-16.181-6.792
		c-3.196-2.797-4.993-6.394-4.993-10.788c0-2.796,0.799-5.594,2.396-8.189c1.599-2.598,4.194-4.595,7.592-5.993
		c3.395-1.399,7.99-2.197,13.783-2.197c7.192,0,12.584,1.397,16.379,3.995c3.799,2.597,5.993,6.992,6.794,12.784l-16.382,0.999
		c-0.399-2.597-1.398-4.395-2.795-5.394c-1.4-1.198-3.397-1.798-5.793-1.798c-1.999,0-3.598,0.4-4.597,1.198
		c-0.998,0.8-1.597,1.998-1.597,3.197c0,0.798,0.397,1.797,1.396,2.396c0.801,0.8,2.798,1.397,5.796,1.997
		c7.589,1.599,12.984,3.197,16.179,4.995c3.196,1.598,5.595,3.796,7.192,6.193c1.398,2.396,2.197,5.192,2.197,8.389
		c0,3.595-0.998,6.992-2.997,9.989c-1.997,2.996-4.794,5.395-8.391,6.991c-3.595,1.598-7.99,2.398-13.584,2.398
		c-9.586,0-16.181-1.8-19.774-5.596C681.348,456.355,679.349,451.562,678.952,445.968L678.952,445.968z M738.48,408.412h46.347
		v11.986h-28.966v8.989h26.768v11.388h-26.768v10.987h29.764v12.783H738.48V408.412z M365.122,393.63h17.379l22.574,39.354V393.63
		h17.38v70.717h-17.38l-22.574-39.153v39.153h-17.379V393.63z M555.496,393.63h49.543v15.184h-30.963v11.186h28.765v14.383h-28.765
		v13.983h31.761v15.981h-50.539V393.63H555.496z"/>
</g>
</svg>
